<?xml version="1.0" encoding="UTF-8" standalone="no"?>
<!DOCTYPE svg PUBLIC "-//W3C//DTD SVG 1.1//EN" "http://www.w3.org/Graphics/SVG/1.1/DTD/svg11.dtd">
<svg width="100%" height="100%" viewBox="0 0 1024 1024" version="1.1" xmlns="http://www.w3.org/2000/svg" xmlns:xlink="http://www.w3.org/1999/xlink" xml:space="preserve" xmlns:serif="http://www.serif.com/" style="fill-rule:evenodd;clip-rule:evenodd;stroke-linejoin:round;stroke-miterlimit:2;">
    <g id="Layer1">
        <g>
            <g transform="matrix(1.53509,0,0,1.48379,12.3949,-58.8499)">
                <path d="M398.134,247.805C398.44,246.236 399.773,245.108 401.32,245.108C408.07,245.102 425.189,245.102 425.189,245.102L434.859,246.092L444.069,248.988L452.559,253.678L460.074,260.052L466.235,267.826L470.768,276.61L473.567,286.138L474.523,296.142L474.523,296.144L473.522,306.4L470.635,316.019L466.082,324.7L460.074,332.234L452.791,338.45L444.401,343.161L435.103,346.147L425.189,347.184L386.036,347.184C384.837,347.184 383.865,348.189 383.865,349.43L383.865,536.491C383.865,568.75 358.588,594.9 327.408,594.9L323.502,594.9C292.322,594.9 267.045,568.75 267.045,536.491L267.045,349.43C267.045,348.189 266.073,347.184 264.874,347.184L225.724,347.184L216.054,346.194L206.845,343.298L198.354,338.608L190.84,332.234L184.679,324.46L180.145,315.676L177.347,306.148L176.39,296.144L176.39,296.142L177.347,286.138L180.145,276.61L184.679,267.826L190.84,260.052L198.354,253.678L206.845,248.988L216.054,246.092L225.724,245.102L249.593,245.102C251.143,245.102 252.478,246.232 252.785,247.804C254.238,255.027 256.679,261.877 259.949,268.2C260.5,269.24 260.48,270.503 259.896,271.524C259.312,272.544 258.251,273.17 257.105,273.17C246.731,273.184 225.724,273.184 225.724,273.184C219.839,273.184 214.194,275.602 210.033,279.908C205.871,284.214 203.533,290.053 203.533,296.142L203.533,296.144C203.533,302.233 205.871,308.072 210.033,312.378C214.194,316.684 219.839,319.102 225.724,319.102L264.874,319.102C281.064,319.102 294.188,332.681 294.188,349.43L294.188,536.491C294.188,553.241 307.313,566.819 323.502,566.819L327.408,566.819C343.597,566.819 356.722,553.241 356.722,536.491L356.722,349.43C356.722,332.681 369.846,319.102 386.036,319.102L425.189,319.102C437.445,319.102 447.381,308.823 447.381,296.144L447.381,296.142C447.381,290.053 445.043,284.214 440.881,279.908C436.719,275.602 431.075,273.184 425.189,273.184L393.809,273.184C392.658,273.184 391.593,272.555 391.006,271.531C390.42,270.506 390.4,269.238 390.953,268.194C394.235,261.877 396.675,255.027 398.134,247.805Z" style="stroke:black;stroke-width:0.66px;"/>
            </g>
            <g transform="matrix(2.11223,0,0,2.11223,-420.227,-197.354)">
                <path d="M441.348,190.642L448.974,191.413L456.121,193.634L462.57,197.135L468.168,201.755L472.787,207.352L476.289,213.802L478.51,220.949L479.281,228.575L478.51,236.201L476.289,243.348L472.787,249.797L468.168,255.395L462.57,260.014L456.121,263.516L448.974,265.736L441.348,266.508L433.722,265.736L426.575,263.516L420.126,260.014L414.528,255.395L409.909,249.797L406.407,243.348L404.187,236.201L403.415,228.575L404.187,220.949L406.407,213.802L409.909,207.352L414.528,201.755L420.126,197.135L426.575,193.634L433.722,191.413L441.348,190.642ZM441.348,210.368C431.3,210.368 423.142,218.526 423.142,228.575C423.142,238.623 431.3,246.781 441.348,246.781C451.397,246.781 459.555,238.623 459.555,228.575C459.555,218.526 451.397,210.368 441.348,210.368Z"/>
            </g>
        </g>
    </g>
</svg>
